<svg width="96" height="28" viewBox="0 0 96 28" fill="none" xmlns="http://www.w3.org/2000/svg">
  <rect width="96" height="28" rx="6" fill="white" />
  <path
    d="M13.84 18.2C12.51 18.2 11.45 17.71 10.66 16.75C9.87 15.79 9.48 14.53 9.48 12.99C9.48 11.5 9.88 10.24 10.68 9.2C11.48 8.16 12.55 7.64 13.9 7.64C14.97 7.64 15.85 7.96 16.55 8.6C17.25 9.24 17.71 10.07 17.92 11.08H15.76C15.62 10.57 15.39 10.18 15.05 9.91C14.71 9.64 14.31 9.5 13.84 9.5C13.05 9.5 12.43 9.82 11.98 10.46C11.52 11.1 11.29 11.95 11.29 13C11.29 14.05 11.52 14.9 11.98 15.54C12.43 16.18 13.05 16.5 13.84 16.5C14.71 16.5 15.34 16.09 15.73 15.26H17.89C17.62 16.24 17.09 17.06 16.31 17.72C15.52 18.38 14.57 18.7 13.46 18.7C13.59 18.7 13.72 18.68 13.84 18.65V18.2Z"
    fill="#0B5FFF"
  />
  <path
    d="M22.85 18.7C21.72 18.7 20.77 18.34 20.01 17.62C19.24 16.9 18.86 15.89 18.86 14.6C18.86 13.32 19.25 12.31 20.04 11.57C20.82 10.83 21.86 10.46 23.15 10.46C24.34 10.46 25.29 10.82 25.99 11.54C26.69 12.26 27.04 13.27 27.04 14.58C27.04 15.91 26.67 16.94 25.95 17.66C25.24 18.38 24.23 18.7 22.92 18.7H22.85ZM23 17C23.69 17 24.22 16.77 24.58 16.31C24.95 15.85 25.13 15.27 25.13 14.57C25.13 13.86 24.94 13.29 24.57 12.86C24.2 12.42 23.67 12.2 22.99 12.2C22.3 12.2 21.77 12.42 21.39 12.87C21.02 13.32 20.83 13.9 20.83 14.61C20.83 15.31 21.02 15.88 21.39 16.33C21.77 16.78 22.31 17 23 17Z"
    fill="#0B5FFF"
  />
  <path
    d="M33.27 10.46C34.2 10.46 34.98 10.79 35.6 11.44C36.22 12.09 36.53 12.97 36.53 14.07V18.5H34.58V14.4C34.58 13.76 34.39 13.27 34.03 12.93C33.66 12.59 33.17 12.42 32.55 12.42C31.93 12.42 31.43 12.59 31.05 12.93C30.67 13.27 30.49 13.76 30.49 14.4V18.5H28.53V10.6H30.42V11.67C30.91 10.88 31.74 10.46 32.91 10.46H33.27Z"
    fill="#0B5FFF"
  />
  <path
    d="M44.74 10.6H46.76L43.76 18.5H41.74L40.99 16.49H37.93L37.21 18.5H35.22L37.97 10.6H39.98L42.05 16.35L44.74 10.6ZM40.09 15.05H41.76L40.97 12.78L40.09 15.05Z"
    fill="#0B5FFF"
  />
  <path
    d="M48.56 8.3H50.52V10.6H52V12.32H50.52V16.26C50.52 16.53 50.59 16.71 50.73 16.82C50.87 16.93 51.11 16.99 51.45 16.99H51.99V18.5H50.99C49.45 18.5 48.68 17.79 48.68 16.36V12.32H47.3V10.6H48.56V8.3Z"
    fill="#0B5FFF"
  />
</svg>

